<svg width="40" height="40" viewBox="0 0 40 40" fill="none" xmlns="http://www.w3.org/2000/svg">
<rect width="40" height="40" rx="16" fill="#F66971"/>
<g clip-path="url(#clip0_139_1090)">
<path d="M30.6562 17.9376C30.6562 17.316 30.4093 16.7199 29.9698 16.2803C29.5302 15.8408 28.9341 15.5939 28.3125 15.5939H21.2812V14.715C21.9518 14.5408 22.5457 14.1491 22.9698 13.6013C23.3939 13.0535 23.6243 12.3804 23.625 11.6876C23.625 8.95324 21.043 7.20421 20.9336 7.13097C20.8052 7.04531 20.6543 6.9996 20.5 6.9996C20.3457 6.9996 20.1948 7.04531 20.0664 7.13097C19.957 7.20421 17.375 8.95324 17.375 11.6876C17.3757 12.3804 17.6061 13.0535 18.0302 13.6013C18.4543 14.1491 19.0482 14.5408 19.7188 14.715V15.5939H12.6875C12.0659 15.5939 11.4698 15.8408 11.0302 16.2803C10.5907 16.7199 10.3438 17.316 10.3438 17.9376V20.2159C10.3446 21.0682 10.6183 21.8978 11.125 22.5831V26.5314C11.125 27.153 11.3719 27.7491 11.8115 28.1886C12.251 28.6282 12.8471 28.8751 13.4688 28.8751H27.5312C28.1529 28.8751 28.749 28.6282 29.1885 28.1886C29.6281 27.7491 29.875 27.153 29.875 26.5314V22.5831C30.3817 21.8978 30.6554 21.0682 30.6562 20.2159V17.9376ZM18.9375 11.6876C18.9375 10.3624 19.9141 9.29894 20.5 8.77843C21.0859 9.29894 22.0625 10.3624 22.0625 11.6876C22.0625 12.102 21.8979 12.4994 21.6049 12.7925C21.3118 13.0855 20.9144 13.2501 20.5 13.2501C20.0856 13.2501 19.6882 13.0855 19.3951 12.7925C19.1021 12.4994 18.9375 12.102 18.9375 11.6876ZM11.9062 17.9376C11.9062 17.7304 11.9886 17.5317 12.1351 17.3852C12.2816 17.2387 12.4803 17.1564 12.6875 17.1564H28.3125C28.5197 17.1564 28.7184 17.2387 28.8649 17.3852C29.0114 17.5317 29.0938 17.7304 29.0938 17.9376V20.2159C29.0938 21.5099 28.0723 22.59 26.8164 22.6241C26.5032 22.633 26.1913 22.579 25.8993 22.4652C25.6073 22.3515 25.3411 22.1804 25.1164 21.9619C24.8917 21.7435 24.7131 21.4822 24.5911 21.1936C24.4691 20.9049 24.4063 20.5947 24.4062 20.2814C24.4062 20.0742 24.3239 19.8754 24.1774 19.7289C24.0309 19.5824 23.8322 19.5001 23.625 19.5001C23.4178 19.5001 23.2191 19.5824 23.0726 19.7289C22.9261 19.8754 22.8438 20.0742 22.8438 20.2814C22.8437 20.903 22.5968 21.4991 22.1573 21.9386C21.7177 22.3782 21.1216 22.6251 20.5 22.6251C19.8784 22.6251 19.2823 22.3782 18.8427 21.9386C18.4032 21.4991 18.1562 20.903 18.1562 20.2814C18.1562 20.0742 18.0739 19.8754 17.9274 19.7289C17.7809 19.5824 17.5822 19.5001 17.375 19.5001C17.1678 19.5001 16.9691 19.5824 16.8226 19.7289C16.6761 19.8754 16.5938 20.0742 16.5938 20.2814C16.5939 20.5948 16.5311 20.9051 16.4092 21.1939C16.2873 21.4827 16.1087 21.744 15.884 21.9626C15.6593 22.1811 15.393 22.3523 15.1009 22.4661C14.8088 22.5799 14.4969 22.634 14.1836 22.6251C12.9277 22.59 11.9062 21.5099 11.9062 20.2159V17.9376ZM27.5312 27.3126H13.4688C13.2615 27.3126 13.0628 27.2303 12.9163 27.0838C12.7698 26.9373 12.6875 26.7386 12.6875 26.5314V23.8517C13.1448 24.0589 13.6388 24.1731 14.1406 24.1876C14.6627 24.2039 15.1828 24.1144 15.6694 23.9246C16.1561 23.7348 16.5994 23.4486 16.9727 23.0831C17.1184 22.9411 17.2529 22.7879 17.375 22.6251C17.7389 23.1103 18.2107 23.504 18.7531 23.7752C19.2955 24.0464 19.8936 24.1876 20.5 24.1876C21.1064 24.1876 21.7045 24.0464 22.2469 23.7752C22.7893 23.504 23.2611 23.1103 23.625 22.6251C23.7475 22.7873 23.8823 22.9398 24.0283 23.0812C24.7551 23.793 25.7327 24.1905 26.75 24.1876H26.8613C27.3625 24.1728 27.8558 24.0586 28.3125 23.8517V26.5314C28.3125 26.7386 28.2302 26.9373 28.0837 27.0838C27.9372 27.2303 27.7385 27.3126 27.5312 27.3126Z" fill="white"/>
</g>
<defs>
<clipPath id="clip0_139_1090">
<rect width="25" height="25" fill="white" transform="translate(8 7)"/>
</clipPath>
</defs>
</svg>
