<svg class="svg-icon" style="width: 1em; height: 1em;vertical-align: middle;fill: currentColor;overflow: hidden;" viewBox="0 0 1024 1024" version="1.1" xmlns="http://www.w3.org/2000/svg"><path d="M949 68.7c-8.3-6.2-19.4-6.3-27.7-0.7L644 253.5H268.9c-55.1 0-107 21.6-146.2 60.8C83.6 353.5 62 405.4 62 460.5c0 55.1 21.6 107 60.8 146.2 30 30 67.5 49.7 108.1 57.2 0 0 0.1 0 0.1 0.1v271c0 13.3 10.8 24.1 24.1 24.1h167.1c13.3 0 24.1-10.8 24.1-24.1V667.5c0-0.1 0-0.1 0.1-0.1h199.1L921.3 852c4 2.7 8.7 4.1 13.3 4.1 4.6 0 9.1-1.3 13.1-3.9 6.9-4.5 10.9-12.4 10.9-20.7v-743c0-7.7-3.4-15.2-9.6-19.8zM614.1 619.4h-79.9c-0.1 0-0.1 0-0.1-0.1V301.7c0-0.1 0-0.1 0.1-0.1h79.9c0.1 0 0.1 0 0.1 0.1l-0.1 317.7c0.1-0.1 0.1 0 0 0zM110 460.5c0-87.6 71.3-158.9 158.9-158.9h217c0.1 0 0.1 0 0.1 0.1v317.6c0 0.1 0 0.1-0.1 0.1h-217c-87.6 0-158.9-71.3-158.9-158.9zM392.3 911H285c-3.3 0-6-2.7-6-6V671.2c0-0.1 0-0.1 0.1-0.1h119.1c0.1 0 0.1 0 0.1 0.1V905c0 3.3-2.7 6-6 6z m518.3-135.1c0 4.8-5.4 7.7-9.3 5L666.1 623.4c-1.2-0.8-2.5-1.5-3.8-2.1l-0.1-0.1V299.3l240-160.8c3.6-2.4 8.5 0.2 8.5 4.5v632.9z"  /></svg>