<svg width="100" height="100" viewBox="0 0 100 100" fill="none" xmlns="http://www.w3.org/2000/svg">
<path d="M70.8334 75C70.8334 72.7898 69.9554 70.6702 68.3926 69.1074C66.8298 67.5446 64.7102 66.6666 62.5001 66.6666H37.5001C35.2899 66.6666 33.1703 67.5446 31.6075 69.1074C30.0447 70.6702 29.1667 72.7898 29.1667 75" stroke="black" stroke-width="6.33" stroke-linecap="round" stroke-linejoin="round"/>
<path d="M79.1667 16.6666H20.8333C16.231 16.6666 12.5 20.3976 12.5 25V83.3333C12.5 87.9357 16.231 91.6666 20.8333 91.6666H79.1667C83.769 91.6666 87.5 87.9357 87.5 83.3333V25C87.5 20.3976 83.769 16.6666 79.1667 16.6666Z" stroke="black" stroke-width="6.33" stroke-linecap="round" stroke-linejoin="round"/>
<path d="M50.0001 50C54.6025 50 58.3334 46.269 58.3334 41.6666C58.3334 37.0643 54.6025 33.3333 50.0001 33.3333C45.3977 33.3333 41.6667 37.0643 41.6667 41.6666C41.6667 46.269 45.3977 50 50.0001 50Z" stroke="black" stroke-width="6.33" stroke-linecap="round" stroke-linejoin="round"/>
<path d="M33.3333 8.33331V16.6666M66.6666 8.33331V16.6666" stroke="black" stroke-width="6.33" stroke-linecap="round" stroke-linejoin="round"/>
</svg>
