<svg width="100" height="100" viewBox="0 0 100 100" fill="none" xmlns="http://www.w3.org/2000/svg">
<path d="M43.5 49.5C48.4728 49.5 53.2419 47.5246 56.7583 44.0083C60.2746 40.4919 62.25 35.7228 62.25 30.75C62.25 25.7772 60.2746 21.0081 56.7583 17.4917C53.2419 13.9754 48.4728 12 43.5 12C38.5272 12 33.7581 13.9754 30.2417 17.4917C26.7254 21.0081 24.75 25.7772 24.75 30.75C24.75 35.7228 26.7254 40.4919 30.2417 44.0083C33.7581 47.5246 38.5272 49.5 43.5 49.5ZM56 30.75C56 34.0652 54.683 37.2446 52.3388 39.5888C49.9946 41.933 46.8152 43.25 43.5 43.25C40.1848 43.25 37.0054 41.933 34.6612 39.5888C32.317 37.2446 31 34.0652 31 30.75C31 27.4348 32.317 24.2554 34.6612 21.9112C37.0054 19.567 40.1848 18.25 43.5 18.25C46.8152 18.25 49.9946 19.567 52.3388 21.9112C54.683 24.2554 56 27.4348 56 30.75ZM81 80.75C81 87 74.75 87 74.75 87H12.25C12.25 87 6 87 6 80.75C6 74.5 12.25 55.75 43.5 55.75C74.75 55.75 81 74.5 81 80.75ZM74.75 80.725C74.7437 79.1875 73.7875 74.5625 69.55 70.325C65.475 66.25 57.8063 62 43.5 62C29.1875 62 21.525 66.25 17.45 70.325C13.2125 74.5625 12.2625 79.1875 12.25 80.725H74.75Z" fill="black"/>
<path fill-rule="evenodd" clip-rule="evenodd" d="M77.625 33.5C78.4538 33.5 79.2487 33.8292 79.8347 34.4153C80.4208 35.0013 80.75 35.7962 80.75 36.625V46H90.125C90.9538 46 91.7487 46.3292 92.3347 46.9153C92.9208 47.5013 93.25 48.2962 93.25 49.125C93.25 49.9538 92.9208 50.7487 92.3347 51.3347C91.7487 51.9208 90.9538 52.25 90.125 52.25H80.75V61.625C80.75 62.4538 80.4208 63.2487 79.8347 63.8347C79.2487 64.4208 78.4538 64.75 77.625 64.75C76.7962 64.75 76.0013 64.4208 75.4153 63.8347C74.8292 63.2487 74.5 62.4538 74.5 61.625V52.25H65.125C64.2962 52.25 63.5013 51.9208 62.9153 51.3347C62.3292 50.7487 62 49.9538 62 49.125C62 48.2962 62.3292 47.5013 62.9153 46.9153C63.5013 46.3292 64.2962 46 65.125 46H74.5V36.625C74.5 35.7962 74.8292 35.0013 75.4153 34.4153C76.0013 33.8292 76.7962 33.5 77.625 33.5Z" fill="black"/>
</svg>
