<svg width="100" height="100" viewBox="0 0 100 100" fill="none" xmlns="http://www.w3.org/2000/svg">
<path d="M43.5 49.5C48.4728 49.5 53.2419 47.5246 56.7583 44.0083C60.2746 40.4919 62.25 35.7228 62.25 30.75C62.25 25.7772 60.2746 21.0081 56.7583 17.4917C53.2419 13.9754 48.4728 12 43.5 12C38.5272 12 33.7581 13.9754 30.2417 17.4917C26.7254 21.0081 24.75 25.7772 24.75 30.75C24.75 35.7228 26.7254 40.4919 30.2417 44.0083C33.7581 47.5246 38.5272 49.5 43.5 49.5ZM56 30.75C56 34.0652 54.683 37.2446 52.3388 39.5888C49.9946 41.933 46.8152 43.25 43.5 43.25C40.1848 43.25 37.0054 41.933 34.6612 39.5888C32.317 37.2446 31 34.0652 31 30.75C31 27.4348 32.317 24.2554 34.6612 21.9112C37.0054 19.567 40.1848 18.25 43.5 18.25C46.8152 18.25 49.9946 19.567 52.3388 21.9112C54.683 24.2554 56 27.4348 56 30.75ZM81 80.75C81 87 74.75 87 74.75 87H12.25C12.25 87 6 87 6 80.75C6 74.5 12.25 55.75 43.5 55.75C74.75 55.75 81 74.5 81 80.75ZM74.75 80.725C74.7438 79.1875 73.7875 74.5625 69.55 70.325C65.475 66.25 57.8063 62 43.5 62C29.1875 62 21.525 66.25 17.45 70.325C13.2125 74.5625 12.2625 79.1875 12.25 80.725H74.75Z" fill="black"/>
<path fill-rule="evenodd" clip-rule="evenodd" d="M81.625 30.5C82.4538 30.5 83.2487 30.8292 83.8347 31.4153C84.4208 32.0013 84.75 32.7962 84.75 33.625V43H94.125C94.9538 43 95.7487 43.3292 96.3347 43.9153C96.9208 44.5013 97.25 45.2962 97.25 46.125C97.25 46.9538 96.9208 47.7487 96.3347 48.3347C95.7487 48.9208 94.9538 49.25 94.125 49.25H84.75V58.625C84.75 59.4538 84.4208 60.2487 83.8347 60.8347C83.2487 61.4208 82.4538 61.75 81.625 61.75C80.7962 61.75 80.0013 61.4208 79.4153 60.8347C78.8292 60.2487 78.5 59.4538 78.5 58.625V49.25H69.125C68.2962 49.25 67.5013 48.9208 66.9153 48.3347C66.3292 47.7487 66 46.9538 66 46.125C66 45.2962 66.3292 44.5013 66.9153 43.9153C67.5013 43.3292 68.2962 43 69.125 43H78.5V33.625C78.5 32.7962 78.8292 32.0013 79.4153 31.4153C80.0013 30.8292 80.7962 30.5 81.625 30.5Z" fill="black"/>
</svg>
