<svg width="100" height="100" viewBox="0 0 100 100" fill="none" xmlns="http://www.w3.org/2000/svg">
<path d="M42.4224 33.1251C42.4224 31.1483 44.0104 29.5486 45.967 29.5486H54.4868C66.2187 29.5486 75.8264 39.0089 75.8264 50.7999C75.8264 62.5856 66.2187 72.0486 54.4868 72.0486H45.9644C44.0052 72.0486 42.4199 70.4463 42.4199 68.472L42.4224 33.1251ZM49.5116 64.5703C49.5116 64.7498 49.6559 64.8955 49.8338 64.8955H54.4868C62.4112 64.8955 68.7372 58.5305 68.7372 50.7973C68.7372 43.0667 62.4112 36.6991 54.4868 36.6991H49.8312C49.7887 36.6991 49.7466 36.7076 49.7073 36.7241C49.668 36.7406 49.6324 36.7648 49.6024 36.7953C49.5725 36.8257 49.5488 36.8619 49.5328 36.9016C49.5167 36.9414 49.5086 36.9839 49.509 37.0269L49.5116 64.5703ZM33.088 29.8139C33.5536 29.8129 34.0148 29.9045 34.4452 30.0835C34.8757 30.2624 35.267 30.5253 35.5966 30.857C35.9263 31.1887 36.188 31.5827 36.3666 32.0166C36.5452 32.4504 36.6374 32.9155 36.6377 33.3853L36.6738 68.2015C36.6748 69.1501 36.3024 70.0602 35.6384 70.7317C34.9743 71.4031 34.0732 71.7809 33.1331 71.782C32.193 71.783 31.291 71.4072 30.6256 70.7372C29.9601 70.0672 29.5857 69.1579 29.5847 68.2093L29.5486 33.3931C29.5479 32.9234 29.6389 32.4582 29.8164 32.024C29.9939 31.5898 30.2545 31.1951 30.5831 30.8625C30.9118 30.5299 31.3022 30.2659 31.7319 30.0855C32.1617 29.9052 32.6225 29.8146 33.088 29.8139Z" fill="black"/>
<path d="M21.1667 7C19.3063 7 17.4641 7.36643 15.7453 8.07837C14.0265 8.79031 12.4648 9.83382 11.1493 11.1493C8.49256 13.8061 7 17.4094 7 21.1667V77.8333C7 81.5906 8.49256 85.1939 11.1493 87.8507C12.4648 89.1662 14.0265 90.2097 15.7453 90.9216C17.4641 91.6336 19.3063 92 21.1667 92H77.8333C81.5906 92 85.1939 90.5074 87.8507 87.8507C90.5074 85.1939 92 81.5906 92 77.8333V21.1667C92 19.3063 91.6336 17.4641 90.9216 15.7453C90.2097 14.0265 89.1662 12.4648 87.8507 11.1493C86.5352 9.83382 84.9735 8.79031 83.2547 8.07837C81.5359 7.36643 79.6937 7 77.8333 7H21.1667ZM12.6667 21.1667C12.6667 18.9123 13.5622 16.7503 15.1563 15.1563C16.7503 13.5622 18.9123 12.6667 21.1667 12.6667H77.8333C80.0877 12.6667 82.2497 13.5622 83.8437 15.1563C85.4378 16.7503 86.3333 18.9123 86.3333 21.1667V77.8333C86.3333 80.0877 85.4378 82.2497 83.8437 83.8437C82.2497 85.4378 80.0877 86.3333 77.8333 86.3333H21.1667C18.9123 86.3333 16.7503 85.4378 15.1563 83.8437C13.5622 82.2497 12.6667 80.0877 12.6667 77.8333V21.1667Z" fill="black"/>
</svg>
