<svg width="32" height="32" viewBox="0 0 32 32" fill="none" xmlns="http://www.w3.org/2000/svg">
<g clip-path="url(#clip0_64_272)">
<path d="M16 0.00634766C7.38462 0.00634766 0.230156 6.04164 0.230156 13.6358C0.230156 17.2088 1.96185 20.3492 4.53785 22.7603C4.43816 24.1416 3.72185 24.9675 2.73108 25.7779C2.19816 26.2117 1.60862 26.6181 1.07693 27.1187C0.545233 27.6192 1.89409e-06 28.2986 1.89409e-06 29.2401C-0.000477281 29.5047 0.0899738 29.7619 0.257101 29.9712C0.424228 30.1805 0.658528 30.33 0.923079 30.3961C3.23446 30.9956 5.72308 30.5535 8 29.7621C10.0505 29.0494 11.7809 27.9947 13.1545 26.9697C14.0825 27.1175 15.0178 27.2295 16 27.2295C24.6154 27.2295 31.7698 21.23 31.7698 13.6358C31.7698 6.04283 24.6154 0.00634766 16 0.00634766ZM16 2.38996C23.4412 2.38996 29.3083 7.50279 29.3083 13.637C29.3083 19.7724 23.4412 24.8471 16 24.8471C15.0338 24.8471 14.1083 24.7911 13.1926 24.6242C13.0133 24.5838 12.8269 24.5828 12.6471 24.6214C12.4673 24.6599 12.2987 24.7371 12.1538 24.8471C11.0425 25.7517 9.17785 26.8386 7.19262 27.5287C5.96923 27.9541 4.73108 28.1484 3.57662 28.1997C3.83508 27.997 4.04062 27.854 4.34585 27.6038C5.58523 26.5907 7.07692 24.9627 7.07692 22.5005C7.07609 22.3309 7.03789 22.1634 6.96488 22.0093C6.89187 21.8551 6.78572 21.7178 6.65354 21.6066C4.192 19.5495 2.69292 16.7464 2.69292 13.637C2.69292 7.50041 8.55877 2.38996 16 2.38996ZM16 5.8152C14.1969 5.8152 12.6535 7.01892 12.6535 9.27977C12.6535 10.754 13.3723 12.2295 14.3077 13.1531C14.672 14.0792 14.0222 14.445 13.8843 14.4939C11.9975 15.1542 9.76862 16.3567 9.76862 17.5473V17.9942C9.76862 19.6151 12.9969 19.9679 16 19.9679C19.008 19.9679 22.2314 19.6151 22.2314 17.9942V17.5473C22.2314 16.3233 20.0197 15.128 18.0382 14.4939C17.9471 14.4653 17.3748 14.2031 17.7305 13.1531C18.6597 12.2259 19.3465 10.7493 19.3465 9.27977C19.3465 7.02011 17.8031 5.8152 16 5.8152Z" fill="#B7BCBF"/>
</g>
<defs>
<clipPath id="clip0_64_272">
<rect width="32" height="32" fill="white"/>
</clipPath>
</defs>
</svg>
