<svg width="40" height="40" viewBox="0 0 40 40" fill="none" xmlns="http://www.w3.org/2000/svg">
<g clip-path="url(#clip0_597_824)">
<path d="M16 0.25H24C32.6985 0.25 39.75 7.30151 39.75 16V24C39.75 32.6985 32.6985 39.75 24 39.75H16C7.30151 39.75 0.25 32.6985 0.25 24V16C0.25 7.30151 7.30151 0.25 16 0.25Z" fill="white" stroke="#DADADA" stroke-width="0.5"/>
<path fill-rule="evenodd" clip-rule="evenodd" d="M20.4667 15.5668C20.4667 15.443 20.4175 15.3243 20.33 15.2368C20.2425 15.1493 20.1238 15.1001 20 15.1001C19.8762 15.1001 19.7575 15.1493 19.67 15.2368C19.5825 15.3243 19.5333 15.443 19.5333 15.5668V19.5334H15.5667C15.4429 19.5334 15.3242 19.5826 15.2367 19.6701C15.1492 19.7576 15.1 19.8763 15.1 20.0001C15.1 20.1239 15.1492 20.2426 15.2367 20.3301C15.3242 20.4176 15.4429 20.4668 15.5667 20.4668H19.5333V24.4334C19.5333 24.5572 19.5825 24.6759 19.67 24.7634C19.7575 24.8509 19.8762 24.9001 20 24.9001C20.1238 24.9001 20.2425 24.8509 20.33 24.7634C20.4175 24.6759 20.4667 24.5572 20.4667 24.4334V20.4668H24.4333C24.5571 20.4668 24.6758 20.4176 24.7633 20.3301C24.8508 20.2426 24.9 20.1239 24.9 20.0001C24.9 19.8763 24.8508 19.7576 24.7633 19.6701C24.6758 19.5826 24.5571 19.5334 24.4333 19.5334H20.4667V15.5668Z" fill="#156ABA"/>
</g>
<defs>
<clipPath id="clip0_597_824">
<rect width="40" height="40" fill="white"/>
</clipPath>
</defs>
</svg>
