<svg width="39" height="32" viewBox="0 0 39 32" fill="none" xmlns="http://www.w3.org/2000/svg">
<path d="M34.1318 21.1863L34.0834 20.907L34.2983 20.722C36.774 18.5916 38.2986 15.6422 38.2986 12.3844C38.2986 5.98868 32.4045 0.702249 25 0.702249C17.5965 0.702249 11.7014 5.9887 11.7014 12.3844C11.7014 18.7802 17.5955 24.0676 25 24.0676C25.9717 24.0676 26.9258 23.9798 27.8348 23.8072L27.9997 23.7759L28.1501 23.8504C28.6294 24.0879 30.4503 24.9731 32.545 25.6322C33.5925 25.9618 34.6943 26.2302 35.7218 26.3363C36.5341 26.4202 37.272 26.3995 37.8909 26.2465C37.86 26.2144 37.825 26.1795 37.7854 26.1417C37.6412 26.0039 37.4624 25.8511 37.2505 25.6718C37.2306 25.655 37.2105 25.638 37.1901 25.6208C36.9971 25.4576 36.7829 25.2766 36.5634 25.08C35.597 24.2149 34.4422 22.979 34.1318 21.1863ZM38.0774 26.4882C38.0777 26.4892 38.0779 26.4897 38.0779 26.4897L38.0774 26.4882Z" fill="#333333" stroke="#333333"/>
<g clip-path="url(#clip0_64_275)">
<path d="M4.24312 26.1723L4.29149 25.893L4.07659 25.708C1.96828 23.8937 0.672607 21.3847 0.672607 18.6156C0.672607 13.1811 5.68405 8.67377 12 8.67377C18.315 8.67377 23.3274 13.1812 23.3274 18.6156C23.3274 24.0502 18.3159 28.5584 12 28.5584C11.1713 28.5584 10.358 28.4835 9.58344 28.3364L9.41853 28.3051L9.26813 28.3796C8.85842 28.5827 7.3015 29.3394 5.51138 29.9027C4.61612 30.1844 3.67678 30.4131 2.80251 30.5034C2.16522 30.5692 1.58626 30.5588 1.09322 30.4565C1.21454 30.3409 1.3652 30.2121 1.54568 30.0594C1.5627 30.045 1.57995 30.0304 1.59741 30.0156C1.76278 29.8759 1.94713 29.72 2.13614 29.5508C2.96748 28.8066 3.97281 27.7335 4.24312 26.1723Z" fill="#333333" stroke="white"/>
</g>
<defs>
<clipPath id="clip0_64_275">
<rect width="24" height="24" fill="white" transform="translate(0 8)"/>
</clipPath>
</defs>
</svg>
