<svg width="44" height="44" viewBox="0 0 44 44" fill="none" xmlns="http://www.w3.org/2000/svg">
<path d="M22 40.3334C32.1255 40.3334 40.3333 32.1256 40.3333 22.0001C40.3333 11.8746 32.1255 3.66675 22 3.66675C11.8745 3.66675 3.66666 11.8746 3.66666 22.0001C3.66666 25.3386 4.55949 28.4717 6.11966 31.1667L4.58332 39.4167L12.8333 37.8804C15.6191 39.492 18.7816 40.3383 22 40.3334Z" stroke="black" stroke-width="3" stroke-linecap="round" stroke-linejoin="round"/>
<path d="M17.41 27.2L14.17 18.095H14.11C14.12 18.295 14.135 18.565 14.155 18.905C14.175 19.245 14.19 19.61 14.2 20C14.21 20.39 14.215 20.775 14.215 21.155V27.2H12.745V16.49H15.055L18.13 25.085H18.19L21.355 16.49H23.665V27.2H22.09V21.065C22.09 20.715 22.095 20.355 22.105 19.985C22.125 19.605 22.14 19.25 22.15 18.92C22.17 18.59 22.185 18.32 22.195 18.11H22.135L18.805 27.2H17.41ZM25.1045 19.115H26.8145L28.4945 23.705C28.5845 23.935 28.6645 24.16 28.7345 24.38C28.8045 24.6 28.8645 24.82 28.9145 25.04C28.9745 25.25 29.0195 25.46 29.0495 25.67H29.1095C29.1595 25.41 29.2395 25.105 29.3495 24.755C29.4595 24.395 29.5745 24.04 29.6945 23.69L31.2845 19.115H32.9945L29.5295 28.295C29.3395 28.815 29.1045 29.26 28.8245 29.63C28.5445 30.01 28.2095 30.3 27.8195 30.5C27.4395 30.7 26.9895 30.8 26.4695 30.8C26.2195 30.8 26.0045 30.785 25.8245 30.755C25.6445 30.735 25.4895 30.71 25.3595 30.68V29.42C25.4695 29.44 25.5995 29.46 25.7495 29.48C25.9095 29.5 26.0745 29.51 26.2445 29.51C26.5545 29.51 26.8195 29.45 27.0395 29.33C27.2695 29.21 27.4595 29.04 27.6095 28.82C27.7695 28.6 27.9045 28.35 28.0145 28.07L28.3445 27.2L25.1045 19.115Z" fill="black"/>
</svg>
