<svg width="40" height="40" viewBox="0 0 40 40" fill="none" xmlns="http://www.w3.org/2000/svg">
<rect x="0.5" y="0.5" width="39" height="39" rx="15.5" fill="#F5F5F5" stroke="#E7E7E7"/>
<path fill-rule="evenodd" clip-rule="evenodd" d="M20.6667 13.6667C20.6667 13.4899 20.5964 13.3203 20.4714 13.1953C20.3464 13.0702 20.1768 13 20 13C19.8232 13 19.6536 13.0702 19.5286 13.1953C19.4036 13.3203 19.3333 13.4899 19.3333 13.6667V19.3333H13.6667C13.4899 19.3333 13.3203 19.4036 13.1953 19.5286C13.0702 19.6536 13 19.8232 13 20C13 20.1768 13.0702 20.3464 13.1953 20.4714C13.3203 20.5964 13.4899 20.6667 13.6667 20.6667H19.3333V26.3333C19.3333 26.5101 19.4036 26.6797 19.5286 26.8047C19.6536 26.9298 19.8232 27 20 27C20.1768 27 20.3464 26.9298 20.4714 26.8047C20.5964 26.6797 20.6667 26.5101 20.6667 26.3333V20.6667H26.3333C26.5101 20.6667 26.6797 20.5964 26.8047 20.4714C26.9298 20.3464 27 20.1768 27 20C27 19.8232 26.9298 19.6536 26.8047 19.5286C26.6797 19.4036 26.5101 19.3333 26.3333 19.3333H20.6667V13.6667Z" fill="#878787"/>
</svg>
