<svg width="100" height="100" viewBox="0 0 100 100" fill="none" xmlns="http://www.w3.org/2000/svg">
<path d="M87.25 69.6667V84.5C87.25 86.0188 86.0188 87.25 84.5 87.25H15.5C13.9812 87.25 12.75 86.0188 12.75 84.5V69.6667C12.75 68.1479 13.9812 66.9167 15.5 66.9167H17.8333C19.3521 66.9167 20.5833 68.1479 20.5833 69.6667V76.1667C20.5833 77.9616 22.0384 79.4167 23.8333 79.4167H76.1667C77.9616 79.4167 79.4167 77.9616 79.4167 76.1667V69.6667C79.4167 68.1479 80.6479 66.9167 82.1667 66.9167H84.5C86.0188 66.9167 87.25 68.1479 87.25 69.6667ZM15.5 46.0833H84.5C86.0188 46.0833 87.25 47.3145 87.25 48.8333V51.1667C87.25 52.6854 86.0188 53.9167 84.5 53.9167H15.5C13.9812 53.9167 12.75 52.6854 12.75 51.1667V48.8333C12.75 47.3145 13.9812 46.0833 15.5 46.0833ZM84.5 33.0833H82.1667C80.6479 33.0833 79.4167 31.8521 79.4167 30.3333V23.8333C79.4167 22.0384 77.9616 20.5833 76.1667 20.5833H23.8333C22.0384 20.5833 20.5833 22.0384 20.5833 23.8333V30.3333C20.5833 31.8521 19.3521 33.0833 17.8333 33.0833H15.5C13.9812 33.0833 12.75 31.8521 12.75 30.3333V15.5C12.75 13.9812 13.9812 12.75 15.5 12.75H84.5C86.0188 12.75 87.25 13.9812 87.25 15.5V30.3333C87.25 31.8521 86.0188 33.0833 84.5 33.0833Z" fill="black" stroke="black" stroke-width="0.5"/>
</svg>
