<svg width="100" height="100" viewBox="0 0 100 100" fill="none" xmlns="http://www.w3.org/2000/svg">
<path d="M43.1817 12.5C37.1134 12.5 31.1814 14.2994 26.1358 17.6708C21.0903 21.0421 17.1577 25.8339 14.8355 31.4403C12.5133 37.0466 11.9057 43.2157 13.0896 49.1673C14.2734 55.119 17.1956 60.5859 21.4865 64.8768C25.7774 69.1677 31.2443 72.0899 37.196 73.2737C43.1476 74.4576 49.3167 73.85 54.923 71.5278C60.5293 69.2056 65.3212 65.273 68.6925 60.2274C72.0638 55.1819 73.8633 49.2499 73.8633 43.1816C73.8628 35.0445 70.6301 27.2408 64.8763 21.487C59.1225 15.7332 51.3188 12.5005 43.1817 12.5Z" stroke="black" stroke-width="6.25" stroke-miterlimit="10"/>
<path d="M66.0723 66.0723L87.5 87.5" stroke="black" stroke-width="6.25" stroke-miterlimit="10" stroke-linecap="round"/>
</svg>
